<?xml version="1.0" standalone="no"?>
<!DOCTYPE svg PUBLIC "-//W3C//DTD SVG 20010904//EN"
 "http://www.w3.org/TR/2001/REC-SVG-20010904/DTD/svg10.dtd">
<svg version="1.0" xmlns="http://www.w3.org/2000/svg"
 width="486.000000pt" height="513.000000pt" viewBox="0 0 486.000000 513.000000"
 preserveAspectRatio="xMidYMid meet">

<g transform="translate(0.000000,513.000000) scale(0.100000,-0.100000)"
fill="#000000" stroke="none">
<path d="M2215 4319 c-215 -52 -435 -185 -610 -370 -69 -73 -229 -278 -223
-285 3 -2 42 9 88 26 46 17 85 29 87 27 1 -2 -11 -32 -28 -68 -78 -160 -104
-261 -154 -589 -47 -315 -59 -377 -111 -574 -25 -92 -44 -170 -42 -172 2 -1
37 28 78 66 41 39 79 70 83 70 23 0 -42 -259 -87 -354 -20 -41 -67 -122 -106
-180 -38 -57 -70 -107 -70 -110 0 -7 12 -3 160 56 292 117 477 238 603 395 27
34 54 60 59 57 4 -3 8 -46 8 -96 l0 -91 -43 -42 c-37 -35 -63 -48 -188 -89
-144 -48 -240 -94 -291 -140 -37 -33 -35 -46 5 -46 47 0 219 -45 323 -86 129
-49 263 -120 529 -279 126 -75 265 -157 310 -180 160 -86 358 -161 488 -185
45 -9 45 -9 -56 60 -92 63 -177 152 -214 223 -29 57 -38 156 -16 178 14 14 97
0 214 -36 127 -40 109 -47 254 110 71 77 146 158 166 180 21 22 50 54 65 70
15 17 75 81 133 144 58 63 106 119 106 124 0 6 -94 40 -210 76 -115 35 -212
66 -214 68 -2 2 -1 6 2 9 3 4 55 -1 114 -11 231 -38 268 -43 276 -36 4 4 -22
31 -57 59 -108 88 -169 175 -205 297 -12 39 -37 124 -57 190 -48 162 -112 291
-178 358 -88 91 -237 164 -383 189 l-72 12 59 59 c69 69 133 190 149 281 34
189 -12 350 -133 472 -71 70 -125 104 -227 141 -64 23 -91 27 -209 29 -74 2
-153 -1 -175 -7z m344 -67 c140 -48 246 -142 292 -260 33 -85 33 -219 -1 -287
-46 -95 -142 -175 -189 -160 -36 11 -50 77 -32 143 6 19 6 32 0 32 -9 0 -67
-75 -77 -100 -3 -8 -26 -46 -51 -85 -61 -95 -153 -184 -226 -220 -36 -17 -89
-58 -132 -100 -40 -39 -73 -66 -73 -60 0 5 14 59 30 119 16 61 28 111 26 114
-6 5 -120 -53 -158 -79 l-30 -22 7 49 c15 112 68 251 135 349 44 66 45 68 22
56 -37 -20 -111 -114 -146 -185 -56 -117 -102 -305 -94 -390 l3 -40 40 38 c67
64 115 99 115 84 0 -16 -41 -145 -68 -213 -51 -131 -111 -241 -180 -334 -13
-17 -19 -31 -14 -31 12 0 94 67 105 86 17 30 26 12 11 -23 -59 -141 -118 -231
-232 -354 -35 -38 -60 -69 -56 -69 18 0 128 93 227 192 59 60 112 106 117 103
23 -15 -25 -127 -93 -215 -51 -66 -148 -164 -179 -181 -19 -10 -26 8 -10 27 5
5 20 27 33 49 22 38 23 39 2 25 -96 -69 -164 -111 -195 -124 -32 -14 -37 -14
-48 -1 -10 12 -8 33 8 103 33 137 43 245 40 407 l-3 150 -28 -74 c-27 -71 -57
-127 -57 -104 0 6 7 46 15 89 8 44 23 140 35 214 23 157 33 205 68 320 54 179
131 324 227 429 36 39 37 43 15 36 -36 -11 -78 -33 -85 -45 -3 -5 -16 -15 -27
-21 -20 -11 -19 -7 7 37 25 44 82 121 110 149 5 6 46 41 90 79 107 92 105 90
60 70 -57 -26 -113 -61 -162 -101 -33 -26 -51 -34 -75 -31 l-32 3 50 51 c148
152 334 265 517 315 96 25 254 21 346 -9z m263 -1016 c200 -40 329 -134 407
-300 37 -78 138 -403 128 -413 -6 -5 -197 58 -264 88 -27 11 -73 32 -103 47
-30 14 -59 27 -65 29 -5 3 10 -14 35 -37 61 -56 154 -107 267 -146 52 -18 111
-41 131 -52 34 -17 100 -87 91 -96 -6 -6 -202 58 -329 107 -125 49 -190 78
-288 125 -51 25 -62 28 -57 14 4 -9 9 -41 12 -69 7 -63 -6 -83 -52 -83 -79 0
-145 92 -171 241 -17 99 -32 125 -87 150 -55 24 -97 24 -158 -2 -54 -23 -90
-70 -91 -116 0 -16 18 -95 40 -178 53 -192 66 -272 59 -354 -15 -175 -73 -224
-245 -207 -37 4 -77 10 -90 13 l-23 5 22 24 c12 12 31 51 43 86 21 60 23 63
57 66 29 2 46 -4 83 -32 25 -20 46 -30 46 -23 -1 22 -36 91 -89 172 -143 219
-171 352 -112 522 37 106 68 158 129 215 164 154 481 187 782 81 41 -14 81
-30 88 -36 7 -5 15 -8 18 -5 6 7 -63 47 -136 80 -110 49 -177 63 -312 63 -69
0 -124 2 -122 4 2 3 30 10 62 17 79 17 206 17 294 0z m-347 -438 c21 -18 28
-37 36 -93 12 -92 42 -179 79 -235 27 -40 38 -48 112 -73 117 -40 504 -159
623 -192 191 -52 268 -75 273 -80 3 -2 -40 -53 -94 -112 -124 -134 -242 -256
-183 -188 24 28 71 81 104 120 33 38 82 94 110 124 48 54 49 56 25 59 -98 13
-579 149 -820 232 -91 32 -117 38 -126 28 -7 -7 -31 -48 -54 -90 -23 -43 -46
-81 -52 -84 -5 -3 -2 8 7 26 21 40 44 104 55 148 7 28 2 47 -31 115 -25 54
-44 113 -54 172 -8 49 -22 96 -31 105 -10 10 -35 15 -85 15 -58 0 -67 2 -52
13 9 6 43 12 74 12 46 0 63 -5 84 -22z m-140 -152 c44 -16 91 7 108 54 3 8 6
2 6 -14 1 -40 -43 -86 -81 -86 -40 0 -78 40 -78 82 l1 33 13 -31 c8 -17 21
-34 31 -38z m645 -444 c0 -5 -77 -95 -171 -200 l-171 -191 -34 16 c-42 21 -44
33 -4 33 23 0 39 10 63 37 18 20 57 64 88 98 31 33 87 95 124 138 39 45 75 77
86 77 11 0 19 -4 19 -8z m150 -50 c0 -10 -338 -386 -351 -391 -14 -4 -69 19
-69 30 0 5 13 9 28 9 20 0 38 10 58 33 214 240 298 327 315 327 10 0 19 -3 19
-8z m145 -42 c3 -5 -33 -54 -81 -107 -199 -222 -240 -267 -258 -286 -13 -14
-26 -18 -49 -13 -39 8 -60 26 -30 26 38 0 50 10 155 127 56 64 113 128 126
142 13 14 42 47 64 74 41 46 61 57 73 37z m155 -47 c0 -6 -98 -121 -139 -164
-9 -9 -45 -49 -81 -90 -151 -171 -142 -163 -183 -149 -40 13 -41 30 -2 30 19
0 63 43 196 190 109 121 178 190 190 190 10 0 19 -3 19 -7z m-1099 -107 c-17
-31 -31 -66 -31 -79 0 -44 -2 -44 388 -198 127 -51 230 -94 228 -96 -3 -4
-128 34 -446 135 -69 22 -136 43 -149 47 -13 4 -55 32 -92 63 l-69 56 51 19
c31 11 70 38 97 66 26 25 49 45 51 44 2 -1 -11 -27 -28 -57z m-377 -33 c115
-51 262 -155 401 -284 28 -25 70 -64 94 -85 25 -21 58 -52 75 -67 17 -16 73
-60 124 -99 50 -39 92 -72 92 -74 0 -2 -30 7 -67 21 -84 32 -260 120 -444 223
-79 44 -202 108 -274 143 -71 35 -132 65 -134 67 -3 1 4 9 15 17 18 14 18 15
0 8 -13 -4 -24 0 -34 13 -14 18 -14 18 -9 -4 4 -19 2 -22 -11 -17 -9 3 -45 16
-79 28 l-62 22 61 16 c57 16 65 16 112 1 61 -20 318 -149 382 -191 47 -33 59
-38 49 -21 -11 18 -118 87 -211 136 -147 78 -186 114 -164 154 13 25 11 25 84
-7z"/>
<path d="M2295 4209 c-53 -19 -162 -86 -152 -95 2 -2 21 1 42 7 40 11 175 8
210 -5 18 -7 17 -5 -3 13 -13 11 -40 23 -60 27 -31 6 -33 8 -17 15 11 4 48 8
82 8 71 1 142 -22 197 -64 47 -36 46 -25 -5 30 -47 50 -125 85 -192 85 -23 -1
-69 -10 -102 -21z"/>
<path d="M2210 4050 c-88 -18 -268 -119 -328 -183 l-21 -23 151 1 151 0 -54
17 c-30 9 -66 17 -81 17 -39 1 -35 11 20 48 72 49 140 80 227 104 44 11 82 23
84 25 7 7 -112 2 -149 -6z"/>
<path d="M2485 3991 c-18 -8 -15 -11 25 -28 55 -24 106 -67 131 -108 l19 -30
0 31 c0 17 -9 43 -20 57 -28 35 -25 38 18 21 77 -32 141 -129 143 -217 0 -32
0 -32 11 -7 16 41 3 135 -26 185 -40 68 -99 98 -200 102 -45 1 -90 -1 -101 -6z"/>
<path d="M2411 3883 c-107 -46 -202 -153 -275 -305 -25 -54 -46 -103 -46 -109
0 -6 12 -2 28 9 15 11 70 43 122 71 78 42 90 51 65 50 -16 0 -48 -6 -70 -14
-21 -8 -41 -12 -43 -10 -4 4 31 68 72 133 27 43 89 109 151 160 44 36 44 36
-4 15z"/>
<path d="M1727 3600 c-56 -49 -113 -134 -148 -220 -29 -71 -65 -231 -73 -324
l-5 -59 65 71 c36 39 97 101 137 137 40 36 63 62 52 58 -29 -12 -116 -60 -142
-79 -22 -16 -23 -15 -23 8 0 14 9 60 20 104 28 110 80 217 156 322 24 32 13
27 -39 -18z"/>
<path d="M1880 3038 c-23 -48 -167 -208 -187 -208 -4 0 -7 30 -5 67 l2 68 -33
-105 c-19 -58 -38 -114 -43 -125 -8 -20 -8 -20 21 -1 140 89 252 222 269 319
4 20 6 37 4 37 -2 0 -14 -24 -28 -52z"/>
<path d="M1541 2530 c-1 -30 -8 -86 -16 -125 -8 -38 -15 -71 -15 -73 0 -7 85
64 123 103 42 43 97 122 97 139 0 6 -17 -8 -38 -31 -40 -45 -109 -103 -123
-103 -5 0 -9 24 -10 53 -1 75 -17 108 -18 37z"/>
<path d="M2330 2951 c-102 -33 -177 -102 -211 -192 -21 -57 -23 -60 -32 -38
-4 13 -7 61 -5 107 2 45 2 82 1 82 -2 0 -13 -19 -25 -42 -26 -52 -37 -205 -19
-289 33 -160 160 -359 227 -359 44 0 42 39 -16 265 -49 197 -52 213 -40 255
26 96 136 162 233 140 68 -15 105 -50 133 -128 12 -33 13 -34 14 -10 0 43 18
77 44 90 38 17 97 -4 286 -98 191 -95 370 -168 370 -151 0 2 -21 19 -46 38
-26 19 -77 75 -115 125 -74 100 -109 137 -152 160 -26 14 -30 13 -59 -11 -37
-31 -50 -30 -224 22 -97 28 -140 36 -229 39 -60 2 -121 0 -135 -5z"/>
<path d="M2012 1698 c6 -16 47 -23 60 -10 6 6 0 8 -16 5 -15 -3 -26 -1 -26 6
0 6 -5 11 -11 11 -6 0 -9 -6 -7 -12z"/>
<path d="M2251 1584 c-1 -28 24 -48 46 -39 16 7 15 9 -6 14 -13 4 -28 15 -32
26 -7 19 -8 19 -8 -1z"/>
<path d="M2470 1463 c0 -12 27 -43 38 -43 4 0 14 5 22 10 12 8 10 10 -9 10
-13 0 -30 8 -37 18 -7 9 -14 12 -14 5z"/>
</g>
</svg>
